{
    "asset" : {
        "generator" : "Khronos glTF Blender I/O v1.7.33",
        "version" : "2.0"
    },
    "extensionsUsed" : [
        "KHR_materials_clearcoat"
    ],
    "scene" : 0,
    "scenes" : [
        {
            "name" : "Scene",
            "nodes" : [
                13
            ]
        }
    ],
    "nodes" : [
        {
            "mesh" : 0,
            "name" : "Cube_0"
        },
        {
            "children" : [
                0
            ],
            "name" : "Cube",
            "rotation" : [
                -0.22317290306091309,
                0.030145099386572838,
                -0.12421689927577972,
                0.9663618803024292
            ],
            "scale" : [
                0.47409260272979736,
                0.04496575519442558,
                0.6266326904296875
            ],
            "translation" : [
                -2.757849931716919,
                -2.4092299938201904,
                0.4717000126838684
            ]
        },
        {
            "mesh" : 1,
            "name" : "Cube.001_0"
        },
        {
            "children" : [
                2
            ],
            "name" : "Cube.001",
            "rotation" : [
                -0.21878810226917267,
                -0.053345806896686554,
                0.23682165145874023,
                0.9450933933258057
            ],
            "scale" : [
                0.47408369183540344,
                0.044967807829380035,
                0.626636266708374
            ],
            "translation" : [
                -0.676289975643158,
                -2.0829501152038574,
                0.4717000126838684
            ]
        },
        {
            "mesh" : 2,
            "name" : "Cylinder.003_0"
        },
        {
            "children" : [
                4
            ],
            "name" : "Cylinder.003",
            "rotation" : [
                0,
                0,
                -0.8933333158493042,
                0.4493946135044098
            ],
            "scale" : [
                0.02664031647145748,
                0.02664031647145748,
                0.24246999621391296
            ],
            "translation" : [
                -5.284389972686768,
                -2.6625499725341797,
                -0.3399600088596344
            ]
        },
        {
            "mesh" : 3,
            "name" : "tugu katulistiwa_0"
        },
        {
            "mesh" : 4,
            "name" : "tugu katulistiwa_1"
        },
        {
            "mesh" : 5,
            "name" : "tugu katulistiwa_2"
        },
        {
            "mesh" : 6,
            "name" : "tugu katulistiwa_3"
        },
        {
            "mesh" : 7,
            "name" : "tugu katulistiwa_4"
        },
        {
            "children" : [
                6,
                7,
                8,
                9,
                10
            ],
            "name" : "tugu katulistiwa",
            "rotation" : [
                0,
                0,
                -0.3135087490081787,
                0.9495853185653687
            ],
            "scale" : [
                3.1308352947235107,
                3.1308352947235107,
                0.8480499982833862
            ],
            "translation" : [
                -2.0622498989105225,
                0.055479999631643295,
                -0.023649999871850014
            ]
        },
        {
            "children" : [
                1,
                3,
                5,
                11
            ],
            "name" : "Root"
        },
        {
            "children" : [
                12
            ],
            "name" : "Sketchfab_model",
            "rotation" : [
                -0.7071068286895752,
                0,
                0,
                0.7071068286895752
            ]
        }
    ],
    "materials" : [
        {
            "doubleSided" : true,
            "name" : "Material.001",
            "pbrMetallicRoughness" : {
                "baseColorTexture" : {
                    "index" : 0
                },
                "metallicFactor" : 0,
                "roughnessFactor" : 0.6000000238418579
            }
        },
        {
            "doubleSided" : true,
            "name" : "Material.003",
            "pbrMetallicRoughness" : {
                "baseColorFactor" : [
                    0.13965697586536407,
                    0.8000000715255737,
                    0.21503952145576477,
                    1
                ],
                "metallicFactor" : 0,
                "roughnessFactor" : 0.6000000238418579
            }
        },
        {
            "doubleSided" : true,
            "name" : "Material.052",
            "pbrMetallicRoughness" : {
                "baseColorTexture" : {
                    "index" : 1
                },
                "metallicFactor" : 0,
                "roughnessFactor" : 0.6000000238418579
            }
        },
        {
            "doubleSided" : true,
            "name" : "Material.053",
            "pbrMetallicRoughness" : {
                "baseColorTexture" : {
                    "index" : 2
                },
                "metallicFactor" : 0,
                "roughnessFactor" : 0.6000000238418579
            }
        },
        {
            "doubleSided" : true,
            "name" : "Material.054",
            "pbrMetallicRoughness" : {
                "baseColorTexture" : {
                    "index" : 3
                },
                "metallicFactor" : 0,
                "roughnessFactor" : 0.6000000238418579
            }
        },
        {
            "doubleSided" : true,
            "name" : "Material.055",
            "pbrMetallicRoughness" : {
                "baseColorTexture" : {
                    "index" : 4
                },
                "metallicFactor" : 0,
                "roughnessFactor" : 0.6000000238418579
            }
        },
        {
            "doubleSided" : true,
            "extensions" : {
                "KHR_materials_clearcoat" : {
                    "clearcoatFactor" : 0.5687881112098694,
                    "clearcoatRoughnessFactor" : 0.29439786076545715
                }
            },
            "name" : "Material.002",
            "pbrMetallicRoughness" : {
                "baseColorTexture" : {
                    "index" : 5
                },
                "metallicFactor" : 0.13586127758026123,
                "roughnessFactor" : 0.6000000238418579
            }
        }
    ],
    "meshes" : [
        {
            "name" : "Cube_0",
            "primitives" : [
                {
                    "attributes" : {
                        "POSITION" : 0,
                        "NORMAL" : 1,
                        "TEXCOORD_0" : 2
                    },
                    "indices" : 3,
                    "material" : 0
                }
            ]
        },
        {
            "name" : "Cube.001_0",
            "primitives" : [
                {
                    "attributes" : {
                        "POSITION" : 4,
                        "NORMAL" : 5,
                        "TEXCOORD_0" : 6
                    },
                    "indices" : 3,
                    "material" : 0
                }
            ]
        },
        {
            "name" : "Cylinder.003_0",
            "primitives" : [
                {
                    "attributes" : {
                        "POSITION" : 7,
                        "NORMAL" : 8
                    },
                    "indices" : 9,
                    "material" : 1
                }
            ]
        },
        {
            "name" : "tugu katulistiwa_0",
            "primitives" : [
                {
                    "attributes" : {
                        "POSITION" : 10,
                        "NORMAL" : 11,
                        "TEXCOORD_0" : 12
                    },
                    "indices" : 13,
                    "material" : 2
                }
            ]
        },
        {
            "name" : "tugu katulistiwa_1",
            "primitives" : [
                {
                    "attributes" : {
                        "POSITION" : 14,
                        "NORMAL" : 15,
                        "TEXCOORD_0" : 16
                    },
                    "indices" : 17,
                    "material" : 3
                }
            ]
        },
        {
            "name" : "tugu katulistiwa_2",
            "primitives" : [
                {
                    "attributes" : {
                        "POSITION" : 18,
                        "NORMAL" : 19,
                        "TEXCOORD_0" : 20
                    },
                    "indices" : 21,
                    "material" : 4
                }
            ]
        },
        {
            "name" : "tugu katulistiwa_3",
            "primitives" : [
                {
                    "attributes" : {
                        "POSITION" : 22,
                        "NORMAL" : 23,
                        "TEXCOORD_0" : 24
                    },
                    "indices" : 25,
                    "material" : 5
                }
            ]
        },
        {
            "name" : "tugu katulistiwa_4",
            "primitives" : [
                {
                    "attributes" : {
                        "POSITION" : 26,
                        "NORMAL" : 27,
                        "TEXCOORD_0" : 28
                    },
                    "indices" : 29,
                    "material" : 6
                }
            ]
        }
    ],
    "textures" : [
        {
            "sampler" : 0,
            "source" : 0
        },
        {
            "sampler" : 0,
            "source" : 0
        },
        {
            "sampler" : 0,
            "source" : 0
        },
        {
            "sampler" : 0,
            "source" : 0
        },
        {
            "sampler" : 0,
            "source" : 0
        },
        {
            "sampler" : 0,
            "source" : 1
        }
    ],
    "images" : [
        {
            "bufferView" : 4,
            "mimeType" : "image/jpeg",
            "name" : "Material.001_baseColor"
        },
        {
            "bufferView" : 31,
            "mimeType" : "image/jpeg",
            "name" : "Material.002_baseColor"
        }
    ],
    "accessors" : [
        {
            "bufferView" : 0,
            "componentType" : 5126,
            "count" : 24,
            "max" : [
                1,
                1,
                1
            ],
            "min" : [
                -1,
                -1,
                -1
            ],
            "type" : "VEC3"
        },
        {
            "bufferView" : 1,
            "componentType" : 5126,
            "count" : 24,
            "type" : "VEC3"
        },
        {
            "bufferView" : 2,
            "componentType" : 5126,
            "count" : 24,
            "type" : "VEC2"
        },
        {
            "bufferView" : 3,
            "componentType" : 5123,
            "count" : 36,
            "type" : "SCALAR"
        },
        {
            "bufferView" : 5,
            "componentType" : 5126,
            "count" : 24,
            "max" : [
                1,
                1,
                1
            ],
            "min" : [
                -1,
                -1,
                -1
            ],
            "type" : "VEC3"
        },
        {
            "bufferView" : 6,
            "componentType" : 5126,
            "count" : 24,
            "type" : "VEC3"
        },
        {
            "bufferView" : 7,
            "componentType" : 5126,
            "count" : 24,
            "type" : "VEC2"
        },
        {
            "bufferView" : 8,
            "componentType" : 5126,
            "count" : 610,
            "max" : [
                3.2498300075531006,
                196.17401123046875,
                2.6870899200439453
            ],
            "min" : [
                -219.42283630371094,
                -39.04447937011719,
                -1
            ],
            "type" : "VEC3"
        },
        {
            "bufferView" : 9,
            "componentType" : 5126,
            "count" : 610,
            "type" : "VEC3"
        },
        {
            "bufferView" : 10,
            "componentType" : 5123,
            "count" : 720,
            "type" : "SCALAR"
        },
        {
            "bufferView" : 11,
            "componentType" : 5126,
            "count" : 2726,
            "max" : [
                1.432420015335083,
                1.425379991531372,
                2.740770101547241
            ],
            "min" : [
                -1.4441100358963013,
                -1.4511499404907227,
                -0.7631999850273132
            ],
            "type" : "VEC3"
        },
        {
            "bufferView" : 12,
            "componentType" : 5126,
            "count" : 2726,
            "type" : "VEC3"
        },
        {
            "bufferView" : 13,
            "componentType" : 5126,
            "count" : 2726,
            "type" : "VEC2"
        },
        {
            "bufferView" : 14,
            "componentType" : 5123,
            "count" : 2856,
            "type" : "SCALAR"
        },
        {
            "bufferView" : 15,
            "componentType" : 5126,
            "count" : 2468,
            "max" : [
                0.1483599990606308,
                0.3974500000476837,
                7.9868597984313965
            ],
            "min" : [
                -0.18995000422000885,
                -0.3843199908733368,
                2.653369903564453
            ],
            "type" : "VEC3"
        },
        {
            "bufferView" : 16,
            "componentType" : 5126,
            "count" : 2468,
            "type" : "VEC3"
        },
        {
            "bufferView" : 17,
            "componentType" : 5126,
            "count" : 2468,
            "type" : "VEC2"
        },
        {
            "bufferView" : 18,
            "componentType" : 5123,
            "count" : 3144,
            "type" : "SCALAR"
        },
        {
            "bufferView" : 19,
            "componentType" : 5126,
            "count" : 1746,
            "max" : [
                0.31452998518943787,
                0.014539999887347221,
                8.408650398254395
            ],
            "min" : [
                -0.381879985332489,
                -0.012670000083744526,
                5.837669849395752
            ],
            "type" : "VEC3"
        },
        {
            "bufferView" : 20,
            "componentType" : 5126,
            "count" : 1746,
            "type" : "VEC3"
        },
        {
            "bufferView" : 21,
            "componentType" : 5126,
            "count" : 1746,
            "type" : "VEC2"
        },
        {
            "bufferView" : 22,
            "componentType" : 5123,
            "count" : 2016,
            "type" : "SCALAR"
        },
        {
            "bufferView" : 23,
            "componentType" : 5126,
            "count" : 1356,
            "max" : [
                0.21254999935626984,
                0.2474599927663803,
                7.232999801635742
            ],
            "min" : [
                -0.28126999735832214,
                -0.25398001074790955,
                6.972690105438232
            ],
            "type" : "VEC3"
        },
        {
            "bufferView" : 24,
            "componentType" : 5126,
            "count" : 1356,
            "type" : "VEC3"
        },
        {
            "bufferView" : 25,
            "componentType" : 5126,
            "count" : 1356,
            "type" : "VEC2"
        },
        {
            "bufferView" : 26,
            "componentType" : 5123,
            "count" : 1512,
            "type" : "SCALAR"
        },
        {
            "bufferView" : 27,
            "componentType" : 5126,
            "count" : 294,
            "max" : [
                2.022900104522705,
                2.2180800437927246,
                -0.1379999965429306
            ],
            "min" : [
                -2.231260061264038,
                -2.0360798835754395,
                -0.7631999850273132
            ],
            "type" : "VEC3"
        },
        {
            "bufferView" : 28,
            "componentType" : 5126,
            "count" : 294,
            "type" : "VEC3"
        },
        {
            "bufferView" : 29,
            "componentType" : 5126,
            "count" : 294,
            "type" : "VEC2"
        },
        {
            "bufferView" : 30,
            "componentType" : 5123,
            "count" : 300,
            "type" : "SCALAR"
        }
    ],
    "bufferViews" : [
        {
            "buffer" : 0,
            "byteLength" : 288,
            "byteOffset" : 0
        },
        {
            "buffer" : 0,
            "byteLength" : 288,
            "byteOffset" : 288
        },
        {
            "buffer" : 0,
            "byteLength" : 192,
            "byteOffset" : 576
        },
        {
            "buffer" : 0,
            "byteLength" : 72,
            "byteOffset" : 768
        },
        {
            "buffer" : 0,
            "byteLength" : 197672,
            "byteOffset" : 840
        },
        {
            "buffer" : 0,
            "byteLength" : 288,
            "byteOffset" : 198512
        },
        {
            "buffer" : 0,
            "byteLength" : 288,
            "byteOffset" : 198800
        },
        {
            "buffer" : 0,
            "byteLength" : 192,
            "byteOffset" : 199088
        },
        {
            "buffer" : 0,
            "byteLength" : 7320,
            "byteOffset" : 199280
        },
        {
            "buffer" : 0,
            "byteLength" : 7320,
            "byteOffset" : 206600
        },
        {
            "buffer" : 0,
            "byteLength" : 1440,
            "byteOffset" : 213920
        },
        {
            "buffer" : 0,
            "byteLength" : 32712,
            "byteOffset" : 215360
        },
        {
            "buffer" : 0,
            "byteLength" : 32712,
            "byteOffset" : 248072
        },
        {
            "buffer" : 0,
            "byteLength" : 21808,
            "byteOffset" : 280784
        },
        {
            "buffer" : 0,
            "byteLength" : 5712,
            "byteOffset" : 302592
        },
        {
            "buffer" : 0,
            "byteLength" : 29616,
            "byteOffset" : 308304
        },
        {
            "buffer" : 0,
            "byteLength" : 29616,
            "byteOffset" : 337920
        },
        {
            "buffer" : 0,
            "byteLength" : 19744,
            "byteOffset" : 367536
        },
        {
            "buffer" : 0,
            "byteLength" : 6288,
            "byteOffset" : 387280
        },
        {
            "buffer" : 0,
            "byteLength" : 20952,
            "byteOffset" : 393568
        },
        {
            "buffer" : 0,
            "byteLength" : 20952,
            "byteOffset" : 414520
        },
        {
            "buffer" : 0,
            "byteLength" : 13968,
            "byteOffset" : 435472
        },
        {
            "buffer" : 0,
            "byteLength" : 4032,
            "byteOffset" : 449440
        },
        {
            "buffer" : 0,
            "byteLength" : 16272,
            "byteOffset" : 453472
        },
        {
            "buffer" : 0,
            "byteLength" : 16272,
            "byteOffset" : 469744
        },
        {
            "buffer" : 0,
            "byteLength" : 10848,
            "byteOffset" : 486016
        },
        {
            "buffer" : 0,
            "byteLength" : 3024,
            "byteOffset" : 496864
        },
        {
            "buffer" : 0,
            "byteLength" : 3528,
            "byteOffset" : 499888
        },
        {
            "buffer" : 0,
            "byteLength" : 3528,
            "byteOffset" : 503416
        },
        {
            "buffer" : 0,
            "byteLength" : 2352,
            "byteOffset" : 506944
        },
        {
            "buffer" : 0,
            "byteLength" : 600,
            "byteOffset" : 509296
        },
        {
            "buffer" : 0,
            "byteLength" : 216233,
            "byteOffset" : 509896
        }
    ],
    "samplers" : [
        {
            "magFilter" : 9729,
            "minFilter" : 9987
        }
    ],
    "buffers" : [
        {
            "byteLength" : 726132,
            "uri" : "data:application/octet-stream;base64,"
        }
    ]
}
