{
    "asset" : {
        "generator" : "Khronos glTF Blender I/O v1.7.33",
        "version" : "2.0"
    },
    "scene" : 0,
    "scenes" : [
        {
            "name" : "Scene",
            "nodes" : [
                14
            ]
        }
    ],
    "nodes" : [
        {
            "mesh" : 0,
            "name" : "Object_14"
        },
        {
            "children" : [
                0
            ],
            "name" : "Floor_5",
            "rotation" : [
                0.7053846716880798,
                -0.04932150989770889,
                0.04932151362299919,
                0.7053844928741455
            ],
            "scale" : [
                8.995633125305176,
                8.995633125305176,
                8.99563217163086
            ],
            "translation" : [
                -10.727377891540527,
                6.8624420166015625,
                0.2329462170600891
            ]
        },
        {
            "mesh" : 1,
            "name" : "Object_12"
        },
        {
            "children" : [
                2
            ],
            "name" : "Gold_4",
            "rotation" : [
                0.7054191827774048,
                -0.048824798315763474,
                0.04882480576634407,
                0.7054190635681152
            ],
            "scale" : [
                8.972410202026367,
                8.972410202026367,
                8.972410202026367
            ],
            "translation" : [
                -19.79418182373047,
                110.62358856201172,
                0.3594818115234375
            ]
        },
        {
            "mesh" : 2,
            "name" : "Object_6"
        },
        {
            "children" : [
                4
            ],
            "name" : "Roof_1",
            "rotation" : [
                0.7053846716880798,
                -0.04932150989770889,
                0.04932151362299919,
                0.7053844928741455
            ],
            "scale" : [
                8.995633125305176,
                8.995633125305176,
                8.99563217163086
            ],
            "translation" : [
                -18.69025993347168,
                111.59918975830078,
                0.450277715921402
            ]
        },
        {
            "mesh" : 3,
            "name" : "Object_10"
        },
        {
            "children" : [
                6
            ],
            "name" : "Slabs_3",
            "rotation" : [
                0.7053846716880798,
                -0.04932150989770889,
                0.04932151362299919,
                0.7053844928741455
            ],
            "scale" : [
                8.995633125305176,
                8.995633125305176,
                8.99563217163086
            ],
            "translation" : [
                -10.727377891540527,
                6.8624420166015625,
                0.2329462170600891
            ]
        },
        {
            "mesh" : 4,
            "name" : "Object_4"
        },
        {
            "children" : [
                8
            ],
            "name" : "White_0",
            "rotation" : [
                0.7053846716880798,
                -0.04932150989770889,
                0.04932151362299919,
                0.7053844928741455
            ],
            "scale" : [
                8.995633125305176,
                8.995633125305176,
                8.99563217163086
            ],
            "translation" : [
                -26.759056091308594,
                17.63500213623047,
                0.25822824239730835
            ]
        },
        {
            "mesh" : 5,
            "name" : "Object_8"
        },
        {
            "children" : [
                10
            ],
            "name" : "Wood_2",
            "rotation" : [
                0.7053846716880798,
                -0.04932150989770889,
                0.04932151362299919,
                0.7053844928741455
            ],
            "scale" : [
                8.995633125305176,
                8.995633125305176,
                8.99563217163086
            ],
            "translation" : [
                -19.838376998901367,
                122.04230499267578,
                0.6011849045753479
            ]
        },
        {
            "children" : [
                1,
                3,
                5,
                7,
                9,
                11
            ],
            "name" : "GLTF_SceneRootNode",
            "rotation" : [
                0.7071068286895752,
                0,
                0,
                0.7071068286895752
            ]
        },
        {
            "children" : [
                12
            ],
            "name" : "root"
        },
        {
            "children" : [
                13
            ],
            "name" : "Sketchfab_model",
            "rotation" : [
                -0.7071068286895752,
                0,
                0,
                0.7071068286895752
            ],
            "scale" : [
                0.013671335764229298,
                0.013671335764229298,
                0.013671335764229298
            ]
        }
    ],
    "materials" : [
        {
            "doubleSided" : true,
            "name" : "06_slabs",
            "pbrMetallicRoughness" : {
                "baseColorTexture" : {
                    "index" : 0
                },
                "metallicFactor" : 0,
                "roughnessFactor" : 0.5
            }
        },
        {
            "doubleSided" : true,
            "name" : "02_gold",
            "pbrMetallicRoughness" : {
                "baseColorTexture" : {
                    "index" : 1
                },
                "metallicFactor" : 0,
                "roughnessFactor" : 0.5
            }
        },
        {
            "doubleSided" : true,
            "name" : "01_Roofs",
            "pbrMetallicRoughness" : {
                "baseColorTexture" : {
                    "index" : 2
                },
                "metallicFactor" : 0,
                "roughnessFactor" : 0.5
            }
        },
        {
            "doubleSided" : true,
            "name" : "05_concrete",
            "pbrMetallicRoughness" : {
                "baseColorTexture" : {
                    "index" : 3
                },
                "metallicFactor" : 0,
                "roughnessFactor" : 0.5
            }
        },
        {
            "doubleSided" : true,
            "name" : "04_white",
            "pbrMetallicRoughness" : {
                "baseColorTexture" : {
                    "index" : 4
                },
                "metallicFactor" : 0,
                "roughnessFactor" : 0.5
            }
        },
        {
            "doubleSided" : true,
            "name" : "03_wood",
            "pbrMetallicRoughness" : {
                "baseColorTexture" : {
                    "index" : 5
                },
                "metallicFactor" : 0,
                "roughnessFactor" : 0.5
            }
        }
    ],
    "meshes" : [
        {
            "name" : "Object_5.001",
            "primitives" : [
                {
                    "attributes" : {
                        "POSITION" : 0,
                        "NORMAL" : 1,
                        "TEXCOORD_0" : 2
                    },
                    "indices" : 3,
                    "material" : 0
                }
            ]
        },
        {
            "name" : "Object_4.001",
            "primitives" : [
                {
                    "attributes" : {
                        "POSITION" : 4,
                        "NORMAL" : 5,
                        "TEXCOORD_0" : 6
                    },
                    "indices" : 7,
                    "material" : 1
                }
            ]
        },
        {
            "name" : "Object_1.001",
            "primitives" : [
                {
                    "attributes" : {
                        "POSITION" : 8,
                        "NORMAL" : 9,
                        "TEXCOORD_0" : 10
                    },
                    "indices" : 11,
                    "material" : 2
                }
            ]
        },
        {
            "name" : "Object_3.001",
            "primitives" : [
                {
                    "attributes" : {
                        "POSITION" : 12,
                        "NORMAL" : 13,
                        "TEXCOORD_0" : 14
                    },
                    "indices" : 15,
                    "material" : 3
                }
            ]
        },
        {
            "name" : "Object_0.001",
            "primitives" : [
                {
                    "attributes" : {
                        "POSITION" : 16,
                        "NORMAL" : 17,
                        "TEXCOORD_0" : 18
                    },
                    "indices" : 19,
                    "material" : 4
                }
            ]
        },
        {
            "name" : "Object_2.001",
            "primitives" : [
                {
                    "attributes" : {
                        "POSITION" : 20,
                        "NORMAL" : 21,
                        "TEXCOORD_0" : 22
                    },
                    "indices" : 23,
                    "material" : 5
                }
            ]
        }
    ],
    "textures" : [
        {
            "sampler" : 0,
            "source" : 0
        },
        {
            "sampler" : 0,
            "source" : 1
        },
        {
            "sampler" : 0,
            "source" : 2
        },
        {
            "sampler" : 0,
            "source" : 3
        },
        {
            "sampler" : 0,
            "source" : 4
        },
        {
            "sampler" : 0,
            "source" : 5
        }
    ],
    "images" : [
        {
            "bufferView" : 4,
            "mimeType" : "image/jpeg",
            "name" : "06_slabs_baseColor"
        },
        {
            "bufferView" : 9,
            "mimeType" : "image/jpeg",
            "name" : "02_gold_baseColor"
        },
        {
            "bufferView" : 14,
            "mimeType" : "image/jpeg",
            "name" : "01_Roofs_baseColor"
        },
        {
            "bufferView" : 19,
            "mimeType" : "image/jpeg",
            "name" : "05_concrete_baseColor"
        },
        {
            "bufferView" : 24,
            "mimeType" : "image/jpeg",
            "name" : "04_white_baseColor"
        },
        {
            "bufferView" : 29,
            "mimeType" : "image/jpeg",
            "name" : "03_wood_baseColor"
        }
    ],
    "accessors" : [
        {
            "bufferView" : 0,
            "componentType" : 5126,
            "count" : 91,
            "max" : [
                5.997704982757568,
                7.1433210372924805,
                -0.29181718826293945
            ],
            "min" : [
                -7.992815017700195,
                -6.847258567810059,
                -0.29181814193725586
            ],
            "type" : "VEC3"
        },
        {
            "bufferView" : 1,
            "componentType" : 5126,
            "count" : 91,
            "type" : "VEC3"
        },
        {
            "bufferView" : 2,
            "componentType" : 5126,
            "count" : 91,
            "type" : "VEC2"
        },
        {
            "bufferView" : 3,
            "componentType" : 5123,
            "count" : 93,
            "type" : "SCALAR"
        },
        {
            "bufferView" : 5,
            "componentType" : 5126,
            "count" : 2524,
            "max" : [
                9.642644882202148,
                7.8805251121521,
                9.05926513671875
            ],
            "min" : [
                -7.88808536529541,
                -7.892880439758301,
                -19.020336151123047
            ],
            "type" : "VEC3"
        },
        {
            "bufferView" : 6,
            "componentType" : 5126,
            "count" : 2524,
            "type" : "VEC3"
        },
        {
            "bufferView" : 7,
            "componentType" : 5126,
            "count" : 2524,
            "type" : "VEC2"
        },
        {
            "bufferView" : 8,
            "componentType" : 5123,
            "count" : 2853,
            "type" : "SCALAR"
        },
        {
            "bufferView" : 10,
            "componentType" : 5126,
            "count" : 344,
            "max" : [
                9.700691223144531,
                7.924212455749512,
                9.06385326385498
            ],
            "min" : [
                -8.047595977783203,
                -7.922367095947266,
                -9.561981201171875
            ],
            "type" : "VEC3"
        },
        {
            "bufferView" : 11,
            "componentType" : 5126,
            "count" : 344,
            "type" : "VEC3"
        },
        {
            "bufferView" : 12,
            "componentType" : 5126,
            "count" : 344,
            "type" : "VEC2"
        },
        {
            "bufferView" : 13,
            "componentType" : 5123,
            "count" : 804,
            "type" : "SCALAR"
        },
        {
            "bufferView" : 15,
            "componentType" : 5126,
            "count" : 81,
            "max" : [
                5.997704982757568,
                7.1433210372924805,
                0.778182864189148
            ],
            "min" : [
                -7.992815017700195,
                -6.847258567810059,
                -0.29181814193725586
            ],
            "type" : "VEC3"
        },
        {
            "bufferView" : 16,
            "componentType" : 5126,
            "count" : 81,
            "type" : "VEC3"
        },
        {
            "bufferView" : 17,
            "componentType" : 5126,
            "count" : 81,
            "type" : "VEC2"
        },
        {
            "bufferView" : 18,
            "componentType" : 5123,
            "count" : 87,
            "type" : "SCALAR"
        },
        {
            "bufferView" : 20,
            "componentType" : 5126,
            "count" : 350,
            "max" : [
                6.903477668762207,
                6.030909061431885,
                0.905714750289917
            ],
            "min" : [
                -5.366765022277832,
                -6.236381530761719,
                -18.096412658691406
            ],
            "type" : "VEC3"
        },
        {
            "bufferView" : 21,
            "componentType" : 5126,
            "count" : 350,
            "type" : "VEC3"
        },
        {
            "bufferView" : 22,
            "componentType" : 5126,
            "count" : 350,
            "type" : "VEC2"
        },
        {
            "bufferView" : 23,
            "componentType" : 5123,
            "count" : 378,
            "type" : "SCALAR"
        },
        {
            "bufferView" : 25,
            "componentType" : 5126,
            "count" : 5508,
            "max" : [
                9.824745178222656,
                7.889840126037598,
                15.20942211151123
            ],
            "min" : [
                -7.9235429763793945,
                -7.95673942565918,
                -10.999571800231934
            ],
            "type" : "VEC3"
        },
        {
            "bufferView" : 26,
            "componentType" : 5126,
            "count" : 5508,
            "type" : "VEC3"
        },
        {
            "bufferView" : 27,
            "componentType" : 5126,
            "count" : 5508,
            "type" : "VEC2"
        },
        {
            "bufferView" : 28,
            "componentType" : 5123,
            "count" : 10608,
            "type" : "SCALAR"
        }
    ],
    "bufferViews" : [
        {
            "buffer" : 0,
            "byteLength" : 1092,
            "byteOffset" : 0
        },
        {
            "buffer" : 0,
            "byteLength" : 1092,
            "byteOffset" : 1092
        },
        {
            "buffer" : 0,
            "byteLength" : 728,
            "byteOffset" : 2184
        },
        {
            "buffer" : 0,
            "byteLength" : 186,
            "byteOffset" : 2912
        },
        {
            "buffer" : 0,
            "byteLength" : 118920,
            "byteOffset" : 3100
        },
        {
            "buffer" : 0,
            "byteLength" : 30288,
            "byteOffset" : 122020
        },
        {
            "buffer" : 0,
            "byteLength" : 30288,
            "byteOffset" : 152308
        },
        {
            "buffer" : 0,
            "byteLength" : 20192,
            "byteOffset" : 182596
        },
        {
            "buffer" : 0,
            "byteLength" : 5706,
            "byteOffset" : 202788
        },
        {
            "buffer" : 0,
            "byteLength" : 67051,
            "byteOffset" : 208496
        },
        {
            "buffer" : 0,
            "byteLength" : 4128,
            "byteOffset" : 275548
        },
        {
            "buffer" : 0,
            "byteLength" : 4128,
            "byteOffset" : 279676
        },
        {
            "buffer" : 0,
            "byteLength" : 2752,
            "byteOffset" : 283804
        },
        {
            "buffer" : 0,
            "byteLength" : 1608,
            "byteOffset" : 286556
        },
        {
            "buffer" : 0,
            "byteLength" : 260034,
            "byteOffset" : 288164
        },
        {
            "buffer" : 0,
            "byteLength" : 972,
            "byteOffset" : 548200
        },
        {
            "buffer" : 0,
            "byteLength" : 972,
            "byteOffset" : 549172
        },
        {
            "buffer" : 0,
            "byteLength" : 648,
            "byteOffset" : 550144
        },
        {
            "buffer" : 0,
            "byteLength" : 174,
            "byteOffset" : 550792
        },
        {
            "buffer" : 0,
            "byteLength" : 103469,
            "byteOffset" : 550968
        },
        {
            "buffer" : 0,
            "byteLength" : 4200,
            "byteOffset" : 654440
        },
        {
            "buffer" : 0,
            "byteLength" : 4200,
            "byteOffset" : 658640
        },
        {
            "buffer" : 0,
            "byteLength" : 2800,
            "byteOffset" : 662840
        },
        {
            "buffer" : 0,
            "byteLength" : 756,
            "byteOffset" : 665640
        },
        {
            "buffer" : 0,
            "byteLength" : 34290,
            "byteOffset" : 666396
        },
        {
            "buffer" : 0,
            "byteLength" : 66096,
            "byteOffset" : 700688
        },
        {
            "buffer" : 0,
            "byteLength" : 66096,
            "byteOffset" : 766784
        },
        {
            "buffer" : 0,
            "byteLength" : 44064,
            "byteOffset" : 832880
        },
        {
            "buffer" : 0,
            "byteLength" : 21216,
            "byteOffset" : 876944
        },
        {
            "buffer" : 0,
            "byteLength" : 166942,
            "byteOffset" : 898160
        }
    ],
    "samplers" : [
        {
            "magFilter" : 9729,
            "minFilter" : 9987
        }
    ],
    "buffers" : [
        {
            "byteLength" : 1065104,
            "uri" : "data:application/octet-stream;base64,"
        }
    ]
}
